<?xml version="1.0" encoding="utf-8"?>
<!-- Generator: Adobe Illustrator 23.1.0, SVG Export Plug-In . SVG Version: 6.00 Build 0)  -->
<svg version="1.1" id="Capa_1" xmlns="http://www.w3.org/2000/svg" xmlns:xlink="http://www.w3.org/1999/xlink" x="0px" y="0px"
	 viewBox="0 0 256 193" style="enable-background:new 0 0 256 193;" xml:space="preserve">
<style type="text/css">
	.st0{fill:none;}
	.st1{fill:#003965;}
</style>
<g>
	<path class="st0" d="M125.4,26.28c-0.09-0.5-0.13-1.03-0.11-1.57l-5.73,0.18l1.83,4.36L125.4,26.28z"/>
	<polygon class="st0" points="100.5,110.76 96.23,70.46 90.97,71.6 76.05,110.76 	"/>
	<polygon class="st0" points="91.6,69.95 96.07,68.98 95.18,60.56 	"/>
	<path class="st0" d="M213.99,95.3l-2.14-21.06c-0.38,0.05-0.76,0.07-1.15,0c-0.82-0.15-1.53-0.6-2.1-1.22l-2.53,3.03l2.72,6.61
		L213.99,95.3z"/>
	<path class="st0" d="M126.99,42.58l1.51-12.36c-1.2-0.34-2.14-1.29-2.69-2.57l-3.88,2.88L126.99,42.58z"/>
	<path class="st0" d="M207.38,67.18c0.04-0.16,0.08-0.33,0.13-0.48l-6.81-3.69l1.6,3.89L207.38,67.18z"/>
	<polygon class="st0" points="98.77,69.9 97.41,70.2 101.71,110.76 114.34,110.76 	"/>
	<path class="st0" d="M202.94,68.45l2.58,6.28l2.32-2.77c-0.48-0.93-0.73-2.06-0.68-3.28L202.94,68.45z"/>
	<polygon class="st0" points="97.26,68.72 98.24,68.5 96.85,64.86 	"/>
	<path class="st0" d="M173.12,115.43c0.5,1.15,0.69,2.56,0.42,4.04c-0.02,0.1-0.05,0.18-0.08,0.28l11.31,2.77l-5.8-14.09
		L173.12,115.43z"/>
	<polygon class="st1" points="182.2,174 174.62,155.96 141.33,174 	"/>
	<polygon class="st1" points="133.89,162.31 138.38,174 138.4,174 174.08,154.67 162.78,127.78 	"/>
	<path class="st1" d="M94.7,55.94c-0.32,0.03-0.64,0.02-0.96-0.04c-1.26-0.23-2.27-1.12-2.88-2.36L62.39,74.63
		c0.25,0.48,0.44,1.02,0.56,1.59l28.65-6.26l3.58-9.4L94.7,55.94z"/>
	<path class="st1" d="M95.88,44.17c1.13,0.21,2.04,0.96,2.67,2l22.84-16.92l-1.83-4.36l-22.83,0.72c-0.02,0.24-0.03,0.48-0.07,0.72
		c-0.41,2.27-1.76,4.03-3.39,4.74l1.39,13.1C95.06,44.12,95.47,44.09,95.88,44.17z"/>
	<path class="st1" d="M100.5,110.76H76.05L90.97,71.6l-27.86,6.09c0,0.46-0.02,0.94-0.11,1.42c-0.43,2.37-1.89,4.21-3.6,4.85
		l28.45,59.55h16.12L100.5,110.76z"/>
	<path class="st1" d="M90.39,52.21c-0.21-0.92-0.27-1.94-0.07-2.99c0.4-2.17,1.65-3.87,3.17-4.64L92.1,31.41
		c-0.33,0.04-0.67,0.03-1-0.03c-0.74-0.13-1.38-0.51-1.92-1.04L60.62,72.8c0.36,0.19,0.67,0.45,0.97,0.75L90.39,52.21z"/>
	<path class="st1" d="M123.73,69.28c-0.13-0.01-0.26,0.01-0.39-0.02c-1.76-0.32-3.02-1.93-3.4-3.98L98.77,69.9l15.57,40.86h-12.63
		l3.47,32.74h9.5L123.73,69.28z"/>
	<path class="st1" d="M133.38,160.96l28.86-34.49l-13.12-31.23l-21.73-27.72c-0.69,0.83-1.54,1.41-2.46,1.65l-9.07,74.33h10.82
		L133.38,160.96z"/>
	<path class="st1" d="M126.31,57.79c1.66,0.76,2.72,2.76,2.71,5.07l6.64,0.37l-7.76-18.48L126.31,57.79z"/>
	<path class="st1" d="M99.12,47.42c0.32,1.03,0.4,2.21,0.17,3.44c-0.42,2.29-1.79,4.07-3.43,4.76l0.98,9.24l1.39,3.65l21.57-4.71
		c0.01-0.4,0.05-0.81,0.12-1.22c0.57-3.1,2.87-5.28,5.24-5.06l1.82-14.93l-5.06-12.05L99.12,47.42z"/>
	<path class="st1" d="M57.44,84.15c-2.48-0.45-4.01-3.45-3.42-6.69c0.58-3.15,2.96-5.36,5.37-5.06l28.99-43.1
		c-0.72-1.24-1.02-2.89-0.71-4.62c0.59-3.24,3.08-5.5,5.56-5.04c1.89,0.34,3.22,2.17,3.49,4.45l22.21-0.7l-2.68-6.37H96.35
		c-13.11,0-24.99,8.16-30.28,20.8L9.04,174h42.97l11.7-30.5H86.4L58.07,84.18C57.86,84.19,57.65,84.19,57.44,84.15z"/>
	<path class="st1" d="M128.86,64.38c-0.14,0.7-0.37,1.35-0.67,1.93l18.9,24.11l-10.77-25.63L128.86,64.38z"/>
	<path class="st1" d="M195.13,49.48l-4.71-11.45c-5.25-12.75-17.18-21.01-30.37-21.01h-18.7l6.43,15.64l52,28.15L195.13,49.48z"/>
	<path class="st1" d="M185.49,124.26l8.15,19.8l19.93-10.8c-0.16-0.68-0.23-1.41-0.17-2.17L185.49,124.26z"/>
	<polygon class="st1" points="202.3,66.9 200.7,63.01 148.69,34.85 160.94,64.62 	"/>
	<path class="st1" d="M215.59,99.2l2.65,25.97c0.27-0.01,0.53-0.01,0.8,0.04c2.48,0.45,4.01,3.44,3.42,6.68
		c-0.59,3.24-3.08,5.5-5.56,5.05c-1.25-0.23-2.26-1.11-2.87-2.33l-19.86,10.76L205.96,174h40.42L215.59,99.2z"/>
	<path class="st1" d="M217.06,125.42l-3.07-30.12l-5.2-12.64l-2.72-6.61l-27.09,32.38l5.8,14.09l28.89,7.07
		C214.22,127.56,215.52,126.01,217.06,125.42z"/>
	<polygon class="st1" points="161.59,66.18 178.43,107.11 205.53,74.74 202.94,68.45 	"/>
</g>
</svg>
